<svg xmlns="http://www.w3.org/2000/svg" viewBox="0 0 32 32" width="32" height="32">
  <defs>
    <!-- Vibrant gradient for funnel -->
    <linearGradient id="funnelGrad" x1="0%" y1="0%" x2="100%" y2="100%">
      <stop offset="0%" style="stop-color:#3B82F6;stop-opacity:1" />
      <stop offset="50%" style="stop-color:#8B5CF6;stop-opacity:1" />
      <stop offset="100%" style="stop-color:#EC4899;stop-opacity:1" />
    </linearGradient>

    <!-- Accent gradient -->
    <linearGradient id="accentGrad" x1="0%" y1="0%" x2="0%" y2="100%">
      <stop offset="0%" style="stop-color:#10B981;stop-opacity:1" />
      <stop offset="100%" style="stop-color:#3B82F6;stop-opacity:1" />
    </linearGradient>

    <!-- Glow effect -->
    <filter id="glow">
      <feGaussianBlur stdDeviation="0.5" result="coloredBlur"/>
      <feMerge>
        <feMergeNode in="coloredBlur"/>
        <feMergeNode in="SourceGraphic"/>
      </feMerge>
    </filter>
  </defs>

  <!-- Subtle background glow -->
  <circle cx="16" cy="16" r="14" fill="#3B82F6" opacity="0.08"/>

  <!-- Input nodes (web sources) - top -->
  <g fill="#10B981" filter="url(#glow)">
    <circle cx="10" cy="6" r="1.5"/>
    <circle cx="16" cy="5" r="1.5"/>
    <circle cx="22" cy="6" r="1.5"/>
  </g>

  <!-- Connection lines (data flow) -->
  <g stroke="#3B82F6" stroke-width="0.8" stroke-linecap="round" opacity="0.5">
    <line x1="10" y1="6" x2="12" y2="10"/>
    <line x1="16" y1="5" x2="16" y2="10"/>
    <line x1="22" y1="6" x2="20" y2="10"/>
  </g>

  <!-- Data extraction funnel (simplified 3-tier) -->
  <g filter="url(#glow)">
    <!-- Top tier (wide - web input) -->
    <path d="M 8 10 L 24 10 L 22 14 L 10 14 Z"
          fill="url(#funnelGrad)" opacity="0.85"/>

    <!-- Middle tier (processing) -->
    <path d="M 10 14 L 22 14 L 20 19 L 12 19 Z"
          fill="url(#funnelGrad)" opacity="0.95"/>

    <!-- Bottom tier (narrow - extracted data) -->
    <path d="M 12 19 L 20 19 L 18 23 L 14 23 Z"
          fill="url(#funnelGrad)"/>
  </g>

  <!-- Data particles in funnel -->
  <g fill="#10B981" opacity="0.8">
    <circle cx="13" cy="12" r="0.8"/>
    <circle cx="16" cy="16" r="0.8"/>
    <circle cx="19" cy="12" r="0.8"/>
    <circle cx="16" cy="20" r="0.8"/>
  </g>

  <!-- Output indicator (processed data) -->
  <g transform="translate(16, 25)">
    <!-- Mini document stack -->
    <rect x="-3.5" y="0" width="7" height="4" rx="0.5"
          fill="url(#accentGrad)" opacity="0.9"/>
    <!-- Document lines -->
    <g stroke="#FFFFFF" stroke-width="0.5" stroke-linecap="round">
      <line x1="-2" y1="1.5" x2="2" y2="1.5"/>
      <line x1="-2" y1="2.5" x2="2" y2="2.5"/>
    </g>
  </g>

  <!-- Speed arrow (Go reference) -->
  <path d="M 17 16 L 20 16 M 19 15 L 20 16 L 19 17"
        stroke="#10B981"
        stroke-width="1.2"
        stroke-linecap="round"
        stroke-linejoin="round"
        fill="none"
        opacity="0.8"/>

  <!-- Orbital accent (web connectivity) -->
  <circle cx="16" cy="16" r="13"
          fill="none"
          stroke="url(#funnelGrad)"
          stroke-width="0.5"
          opacity="0.25"/>
</svg>
